<mxfile host="app.diagrams.net" modified="2023-05-30T09:18:41.767Z" agent="Mozilla/5.0 (Windows NT 10.0; Win64; x64) AppleWebKit/537.36 (KHTML, like Gecko) Chrome/113.0.0.0 Safari/537.36" etag="-dCcpwxejhWkETaefoix" version="21.3.2" type="github">
  <diagram id="3rsK4sRMyDqufHuRaAZe" name="Page-1">
    <mxGraphModel dx="1366" dy="674" grid="1" gridSize="10" guides="1" tooltips="1" connect="1" arrows="1" fold="1" page="1" pageScale="1" pageWidth="827" pageHeight="1169" math="0" shadow="0">
      <root>
        <mxCell id="0" />
        <mxCell id="1" parent="0" />
        <mxCell id="Eku0pKUzbgy1wHCtAKzw-3" value="" style="rounded=0;whiteSpace=wrap;html=1;strokeColor=default;fontFamily=宋体;fontSize=12;fontColor=default;fillColor=none;fontStyle=0" parent="1" vertex="1">
          <mxGeometry x="360" y="210" width="80" height="100" as="geometry" />
        </mxCell>
        <mxCell id="U90KXrBJ-N6k7Ng19d0M-50" value="&lt;span style=&quot;font-size: 12px;&quot;&gt;&lt;span style=&quot;font-size: 12px;&quot;&gt;区块体&lt;/span&gt;&lt;/span&gt;" style="text;html=1;strokeColor=none;fillColor=none;align=center;verticalAlign=middle;whiteSpace=wrap;rounded=0;fontSize=12;fontFamily=宋体;fontStyle=0" parent="1" vertex="1">
          <mxGeometry x="340" y="270" width="120" height="30" as="geometry" />
        </mxCell>
        <mxCell id="U90KXrBJ-N6k7Ng19d0M-51" value="&lt;span style=&quot;font-size: 12px;&quot;&gt;&lt;span style=&quot;font-size: 12px;&quot;&gt;区块头&lt;/span&gt;&lt;/span&gt;" style="text;html=1;strokeColor=none;fillColor=none;align=center;verticalAlign=middle;whiteSpace=wrap;rounded=0;fontSize=12;fontFamily=宋体;fontStyle=0" parent="1" vertex="1">
          <mxGeometry x="340" y="210" width="120" height="30" as="geometry" />
        </mxCell>
        <mxCell id="azaXkCB6HdsnD8nDRbe0-1" value="" style="endArrow=none;dashed=1;html=1;dashPattern=1 3;strokeWidth=2;rounded=0;exitX=0;exitY=0.329;exitDx=0;exitDy=0;entryX=0.997;entryY=0.322;entryDx=0;entryDy=0;entryPerimeter=0;exitPerimeter=0;fontFamily=宋体;fontStyle=0;fontSize=12;" parent="1" source="Eku0pKUzbgy1wHCtAKzw-3" target="Eku0pKUzbgy1wHCtAKzw-3" edge="1">
          <mxGeometry width="50" height="50" relative="1" as="geometry">
            <mxPoint x="390" y="410" as="sourcePoint" />
            <mxPoint x="440" y="360" as="targetPoint" />
          </mxGeometry>
        </mxCell>
        <mxCell id="uHn4Tljy3GZ4-gEKd9pQ-1" value="" style="rounded=0;whiteSpace=wrap;html=1;strokeColor=default;fontFamily=宋体;fontSize=12;fontColor=default;fillColor=none;fontStyle=0" parent="1" vertex="1">
          <mxGeometry x="220" y="210" width="80" height="100" as="geometry" />
        </mxCell>
        <mxCell id="uHn4Tljy3GZ4-gEKd9pQ-2" value="&lt;span style=&quot;font-size: 12px;&quot;&gt;&lt;span style=&quot;font-size: 12px;&quot;&gt;区块体&lt;/span&gt;&lt;/span&gt;" style="text;html=1;strokeColor=none;fillColor=none;align=center;verticalAlign=middle;whiteSpace=wrap;rounded=0;fontSize=12;fontFamily=宋体;fontStyle=0" parent="1" vertex="1">
          <mxGeometry x="200" y="270" width="120" height="30" as="geometry" />
        </mxCell>
        <mxCell id="uHn4Tljy3GZ4-gEKd9pQ-3" value="&lt;span style=&quot;font-size: 12px;&quot;&gt;&lt;span style=&quot;font-size: 12px;&quot;&gt;区块头&lt;/span&gt;&lt;/span&gt;" style="text;html=1;strokeColor=none;fillColor=none;align=center;verticalAlign=middle;whiteSpace=wrap;rounded=0;fontSize=12;fontFamily=宋体;fontStyle=0" parent="1" vertex="1">
          <mxGeometry x="200" y="210" width="120" height="30" as="geometry" />
        </mxCell>
        <mxCell id="uHn4Tljy3GZ4-gEKd9pQ-4" value="" style="endArrow=none;dashed=1;html=1;dashPattern=1 3;strokeWidth=2;rounded=0;exitX=0;exitY=0.329;exitDx=0;exitDy=0;entryX=0.997;entryY=0.322;entryDx=0;entryDy=0;entryPerimeter=0;exitPerimeter=0;fontFamily=宋体;fontStyle=0;fontSize=12;" parent="1" source="uHn4Tljy3GZ4-gEKd9pQ-1" target="uHn4Tljy3GZ4-gEKd9pQ-1" edge="1">
          <mxGeometry width="50" height="50" relative="1" as="geometry">
            <mxPoint x="250" y="410" as="sourcePoint" />
            <mxPoint x="300" y="360" as="targetPoint" />
          </mxGeometry>
        </mxCell>
        <mxCell id="uHn4Tljy3GZ4-gEKd9pQ-5" value="&lt;span style=&quot;font-size: 14px;&quot;&gt;&lt;b style=&quot;font-size: 14px;&quot;&gt;区块n-1&lt;/b&gt;&lt;/span&gt;" style="text;html=1;strokeColor=none;fillColor=none;align=center;verticalAlign=middle;whiteSpace=wrap;rounded=0;fontFamily=宋体;fontSize=14;" parent="1" vertex="1">
          <mxGeometry x="200" y="170" width="120" height="30" as="geometry" />
        </mxCell>
        <mxCell id="uHn4Tljy3GZ4-gEKd9pQ-6" value="&lt;span style=&quot;font-size: 14px;&quot;&gt;&lt;b style=&quot;font-size: 14px;&quot;&gt;区块n&lt;/b&gt;&lt;/span&gt;" style="text;html=1;strokeColor=none;fillColor=none;align=center;verticalAlign=middle;whiteSpace=wrap;rounded=0;fontFamily=宋体;fontSize=14;" parent="1" vertex="1">
          <mxGeometry x="340" y="170" width="120" height="30" as="geometry" />
        </mxCell>
        <mxCell id="uHn4Tljy3GZ4-gEKd9pQ-7" value="&lt;span style=&quot;font-size: 14px;&quot;&gt;&lt;b style=&quot;font-size: 14px;&quot;&gt;区块n+1&lt;/b&gt;&lt;/span&gt;" style="text;html=1;strokeColor=none;fillColor=none;align=center;verticalAlign=middle;whiteSpace=wrap;rounded=0;fontFamily=宋体;fontSize=14;" parent="1" vertex="1">
          <mxGeometry x="480" y="170" width="120" height="30" as="geometry" />
        </mxCell>
        <mxCell id="uHn4Tljy3GZ4-gEKd9pQ-8" value="" style="endArrow=classic;html=1;rounded=0;fontSize=12;exitX=0;exitY=0.5;exitDx=0;exitDy=0;entryX=1;entryY=0.5;entryDx=0;entryDy=0;fontFamily=宋体;fontStyle=0" parent="1" source="Eku0pKUzbgy1wHCtAKzw-3" target="uHn4Tljy3GZ4-gEKd9pQ-1" edge="1">
          <mxGeometry width="50" height="50" relative="1" as="geometry">
            <mxPoint x="390" y="390" as="sourcePoint" />
            <mxPoint x="440" y="340" as="targetPoint" />
          </mxGeometry>
        </mxCell>
        <mxCell id="uHn4Tljy3GZ4-gEKd9pQ-20" value="" style="rounded=0;whiteSpace=wrap;html=1;strokeColor=default;fontFamily=宋体;fontSize=12;fontColor=default;fillColor=none;fontStyle=0" parent="1" vertex="1">
          <mxGeometry x="500" y="210" width="80" height="100" as="geometry" />
        </mxCell>
        <mxCell id="uHn4Tljy3GZ4-gEKd9pQ-21" value="&lt;span style=&quot;font-size: 12px;&quot;&gt;&lt;span style=&quot;font-size: 12px;&quot;&gt;区块体&lt;/span&gt;&lt;/span&gt;" style="text;html=1;strokeColor=none;fillColor=none;align=center;verticalAlign=middle;whiteSpace=wrap;rounded=0;fontSize=12;fontFamily=宋体;fontStyle=0" parent="1" vertex="1">
          <mxGeometry x="480" y="270" width="120" height="30" as="geometry" />
        </mxCell>
        <mxCell id="uHn4Tljy3GZ4-gEKd9pQ-22" value="&lt;span style=&quot;font-size: 12px;&quot;&gt;&lt;span style=&quot;font-size: 12px;&quot;&gt;区块头&lt;/span&gt;&lt;/span&gt;" style="text;html=1;strokeColor=none;fillColor=none;align=center;verticalAlign=middle;whiteSpace=wrap;rounded=0;fontSize=12;fontFamily=宋体;fontStyle=0" parent="1" vertex="1">
          <mxGeometry x="480" y="210" width="120" height="30" as="geometry" />
        </mxCell>
        <mxCell id="uHn4Tljy3GZ4-gEKd9pQ-23" value="" style="endArrow=none;dashed=1;html=1;dashPattern=1 3;strokeWidth=2;rounded=0;exitX=0;exitY=0.329;exitDx=0;exitDy=0;entryX=0.997;entryY=0.322;entryDx=0;entryDy=0;entryPerimeter=0;exitPerimeter=0;fontFamily=宋体;fontStyle=0;fontSize=12;" parent="1" source="uHn4Tljy3GZ4-gEKd9pQ-20" target="uHn4Tljy3GZ4-gEKd9pQ-20" edge="1">
          <mxGeometry width="50" height="50" relative="1" as="geometry">
            <mxPoint x="530" y="410" as="sourcePoint" />
            <mxPoint x="580" y="360" as="targetPoint" />
          </mxGeometry>
        </mxCell>
        <mxCell id="uHn4Tljy3GZ4-gEKd9pQ-24" value="" style="endArrow=classic;html=1;rounded=0;fontSize=12;exitX=0;exitY=0.5;exitDx=0;exitDy=0;entryX=1;entryY=0.5;entryDx=0;entryDy=0;fontFamily=宋体;fontStyle=0" parent="1" edge="1">
          <mxGeometry width="50" height="50" relative="1" as="geometry">
            <mxPoint x="500" y="259.5" as="sourcePoint" />
            <mxPoint x="440" y="259.5" as="targetPoint" />
          </mxGeometry>
        </mxCell>
        <mxCell id="uHn4Tljy3GZ4-gEKd9pQ-25" value="" style="endArrow=classic;html=1;rounded=0;fontSize=12;exitX=0;exitY=0.5;exitDx=0;exitDy=0;entryX=1;entryY=0.5;entryDx=0;entryDy=0;fontFamily=宋体;fontStyle=0" parent="1" edge="1">
          <mxGeometry width="50" height="50" relative="1" as="geometry">
            <mxPoint x="220" y="259.5" as="sourcePoint" />
            <mxPoint x="160" y="259.5" as="targetPoint" />
          </mxGeometry>
        </mxCell>
        <mxCell id="uHn4Tljy3GZ4-gEKd9pQ-26" value="" style="endArrow=classic;html=1;rounded=0;fontSize=12;exitX=0;exitY=0.5;exitDx=0;exitDy=0;entryX=1;entryY=0.5;entryDx=0;entryDy=0;fontFamily=宋体;fontStyle=0" parent="1" edge="1">
          <mxGeometry width="50" height="50" relative="1" as="geometry">
            <mxPoint x="640" y="259.5" as="sourcePoint" />
            <mxPoint x="580" y="259.5" as="targetPoint" />
          </mxGeometry>
        </mxCell>
      </root>
    </mxGraphModel>
  </diagram>
</mxfile>
